<svg xmlns="http://www.w3.org/2000/svg">
  <symbol viewBox="0 0 24 24" fill="white" id="home">
    <path stroke="none" d="M0 0h24v24H0z" fill="none"/>
    <path d="M12.707 2.293l9 9c.63 .63 .184 1.707 -.707 1.707h-1v6a3 3 0 0 1 -3 3h-1v-7a3 3 0 0 0 -2.824 -2.995l-.176 -.005h-2a3 3 0 0 0 -3 3v7h-1a3 3 0 0 1 -3 -3v-6h-1c-.89 0 -1.337 -1.077 -.707 -1.707l9 -9a1 1 0 0 1 1.414 0m.293 11.707a1 1 0 0 1 1 1v7h-4v-7a1 1 0 0 1 .883 -.993l.117 -.007z" />
  </symbol>
  <symbol viewBox="0 0 24 24" fill="white" id="folder">
    <path stroke="none" d="M0 0h24v24H0z" fill="none"/>
    <path d="M9 3a1 1 0 0 1 .608 .206l.1 .087l2.706 2.707h6.586a3 3 0 0 1 2.995 2.824l.005 .176v8a3 3 0 0 1 -2.824 2.995l-.176 .005h-14a3 3 0 0 1 -2.995 -2.824l-.005 -.176v-11a3 3 0 0 1 2.824 -2.995l.176 -.005h4z" />
  </symbol>
  <symbol viewBox="0 0 24 24" fill="white" id="file">
    <path stroke="none" d="M0 0h24v24H0z" fill="none"/>
    <path d="M12 2l.117 .007a1 1 0 0 1 .876 .876l.007 .117v4l.005 .15a2 2 0 0 0 1.838 1.844l.157 .006h4l.117 .007a1 1 0 0 1 .876 .876l.007 .117v9a3 3 0 0 1 -2.824 2.995l-.176 .005h-10a3 3 0 0 1 -2.995 -2.824l-.005 -.176v-14a3 3 0 0 1 2.824 -2.995l.176 -.005h5z" />
    <path d="M19 7h-4l-.001 -4.001z" />
  </symbol>
  <symbol viewBox="0 0 24 24" fill="none" stroke-linecap="round" stroke-linejoin="round" id="download">
    <path stroke="none" d="M0 0h24v24H0z" fill="none"/>
    <path d="M4 17v2a2 2 0 0 0 2 2h12a2 2 0 0 0 2 -2v-2" />
    <path d="M7 11l5 5l5 -5" />
    <path d="M12 4l0 12" />
  </symbol>
  <symbol viewBox="0 0 24 24" fill="none" stroke-linecap="round" stroke-linejoin="round" id="trash">
    <path stroke="none" d="M0 0h24v24H0z" fill="none"/>
    <path d="M4 7l16 0" />
    <path d="M10 11l0 6" />
    <path d="M14 11l0 6" />
    <path d="M5 7l1 12a2 2 0 0 0 2 2h8a2 2 0 0 0 2 -2l1 -12" />
    <path d="M9 7v-3a1 1 0 0 1 1 -1h4a1 1 0 0 1 1 1v3" />
  </symbol>
</svg>

